<svg width="22" height="22" viewBox="0 0 22 22" fill="none" xmlns="http://www.w3.org/2000/svg">
<path d="M4.61133 0C2.07671 0 0 2.07671 0 4.61133V17.3887C0 19.9233 2.07671 22 4.61133 22H17.3887C19.9233 22 22 19.9233 22 17.3887V4.61133C22 2.07671 19.9233 0 17.3887 0H4.61133ZM4.61133 2H17.3887C18.8421 2 20 3.15795 20 4.61133V17.3887C20 18.8421 18.8421 20 17.3887 20H4.61133C3.15795 20 2 18.8421 2 17.3887V4.61133C2 3.15795 3.15795 2 4.61133 2ZM12 4V14C12 15.1167 11.1167 16 10 16C8.88333 16 8 15.1167 8 14C8 12.8833 8.88333 12 10 12V10C7.80267 10 6 11.8027 6 14C6 16.1973 7.80267 18 10 18C12.1973 18 14 16.1973 14 14V7.88867C14.8278 8.52977 15.8093 8.98411 16.9277 9L16.957 7C15.3108 6.97661 14 5.65423 14 4H12Z" fill="#97979F"/>
</svg>
