
<svg width="22" height="22" viewBox="0 0 22 22" fill="none" xmlns="http://www.w3.org/2000/svg">
<path fill-rule="evenodd" clip-rule="evenodd" d="M5.99556 1H16.0056C18.7633 1 21 3.23556 21 5.99556V16.0056C21 18.7633 18.7644 21 16.0044 21H5.99556C3.23667 21 1 18.7644 1 16.0044V5.99556C1 3.23667 3.23556 1 5.99556 1V1Z" stroke="#97979F" stroke-width="2" stroke-linecap="round" stroke-linejoin="round"/>
<path d="M16.4988 5.12562C16.2922 5.12674 16.1244 5.29451 16.1244 5.50118C16.1244 5.70785 16.2933 5.87562 16.5 5.87562C16.7066 5.87562 16.8744 5.70785 16.8744 5.50118C16.8755 5.2934 16.7066 5.12562 16.4988 5.12562" stroke="#97979F" stroke-width="2" stroke-linecap="round" stroke-linejoin="round"/>
<path d="M13.8285 8.17158C15.3906 9.73368 15.3906 12.2663 13.8285 13.8284C12.2664 15.3905 9.73374 15.3905 8.17164 13.8284C6.60954 12.2663 6.60954 9.73368 8.17164 8.17158C9.73374 6.60947 12.2664 6.60947 13.8285 8.17158" stroke="#97979F" stroke-width="2" stroke-linecap="round" stroke-linejoin="round"/>
</svg>
