<svg width="34" height="34" viewBox="0 0 34 34" fill="none" xmlns="http://www.w3.org/2000/svg">
<path d="M17 16C14.0572 16 11.649 13.593 11.649 10.6491H9.64904C9.64904 14.6978 12.9529 18 17 18V16ZM11.649 10.6491C11.649 7.69534 14.067 5.25 17 5.25V3.25C12.9431 3.25 9.64904 6.61016 9.64904 10.6491H11.649ZM17 5.25C19.9427 5.25 22.3509 7.65701 22.3509 10.6009H24.3509C24.3509 6.55215 21.047 3.25 17 3.25V5.25ZM22.3509 10.6009C22.3509 13.5547 19.9329 16 17 16V18C21.0568 18 24.3509 14.6398 24.3509 10.6009H22.3509ZM26.9166 28.75H7.08329V30.75H26.9166V28.75ZM7.08329 28.75C6.85641 28.75 6.66663 28.5602 6.66663 28.3333H4.66663C4.66663 29.6648 5.75184 30.75 7.08329 30.75V28.75ZM6.66663 28.3333V26.9167H4.66663V28.3333H6.66663ZM6.66663 26.9167C6.66663 24.3523 8.76891 22.25 11.3333 22.25V20.25C7.66434 20.25 4.66663 23.2477 4.66663 26.9167H6.66663ZM11.3333 22.25H22.6666V20.25H11.3333V22.25ZM22.6666 22.25C25.231 22.25 27.3333 24.3523 27.3333 26.9167H29.3333C29.3333 23.2477 26.3356 20.25 22.6666 20.25V22.25ZM27.3333 26.9167V28.3333H29.3333V26.9167H27.3333ZM27.3333 28.3333C27.3333 28.5602 27.1435 28.75 26.9166 28.75V30.75C28.2481 30.75 29.3333 29.6648 29.3333 28.3333H27.3333Z" fill="#97979F"/>
</svg>
