<svg width="27" height="22" viewBox="0 0 27 22" fill="none" xmlns="http://www.w3.org/2000/svg">
<path fill-rule="evenodd" clip-rule="evenodd" d="M24.9342 4.12271C24.6544 2.89562 23.8257 1.92765 22.7722 1.59521C20.8668 1 13.222 1 13.222 1C13.222 1 5.58079 1 3.67172 1.59521C2.62185 1.92276 1.7932 2.89074 1.50966 4.12271C1 6.34955 1 11 1 11C1 11 1 15.6505 1.50966 17.8773C1.78954 19.1044 2.61819 20.0724 3.67172 20.4048C5.58079 21 13.222 21 13.222 21C13.222 21 20.8668 21 22.7722 20.4048C23.822 20.0772 24.6507 19.1093 24.9342 17.8773C25.4439 15.6505 25.4439 11 25.4439 11C25.4439 11 25.4439 6.34955 24.9342 4.12271Z" stroke="#97979F" stroke-width="2" stroke-linecap="round" stroke-linejoin="round"/>
<path fill-rule="evenodd" clip-rule="evenodd" d="M10.78 14.6667L17.1306 11.0001L10.78 7.3335V14.6667Z" stroke="#97979F" stroke-width="2" stroke-linecap="round" stroke-linejoin="round"/>
</svg>
